<?xml version="1.0" encoding="UTF-8" standalone="no"?>
<!-- Created with Inkscape (http://www.inkscape.org/) -->

<svg
   width="69mm"
   height="56mm"
   viewBox="0 0 69 56"
   version="1.1"
   id="svg5"
   xml:space="preserve"
   inkscape:version="1.2.1 (9c6d41e410, 2022-07-14, custom)"
   sodipodi:docname="logo.svg"
   xmlns:inkscape="http://www.inkscape.org/namespaces/inkscape"
   xmlns:sodipodi="http://sodipodi.sourceforge.net/DTD/sodipodi-0.dtd"
   xmlns="http://www.w3.org/2000/svg"
   xmlns:svg="http://www.w3.org/2000/svg"><sodipodi:namedview
     id="namedview7"
     pagecolor="#ffffff"
     bordercolor="#666666"
     borderopacity="1.0"
     inkscape:showpageshadow="2"
     inkscape:pageopacity="0.0"
     inkscape:pagecheckerboard="0"
     inkscape:deskcolor="#d1d1d1"
     inkscape:document-units="mm"
     showgrid="false"
     inkscape:zoom="2.0000001"
     inkscape:cx="108.25"
     inkscape:cy="-3.4999999"
     inkscape:window-width="1714"
     inkscape:window-height="1375"
     inkscape:window-x="0"
     inkscape:window-y="0"
     inkscape:window-maximized="0"
     inkscape:current-layer="layer1"><inkscape:grid
       type="xygrid"
       id="grid657"
       originx="0"
       originy="0" /></sodipodi:namedview><defs
     id="defs2" /><g
     inkscape:label="Layer 1"
     inkscape:groupmode="layer"
     id="layer1"><path
       id="path1379"
       style="fill:#ffcc00;stroke:none;stroke-width:1.21516;stroke-linecap:round;stroke-miterlimit:3.7"
       d="m 19.625798,27.612992 c -3.092171,6.187969 -5.47511,6.880653 -9.6370165,9.90809 C 8.966107,37.137337 7.4684919,34.223374 9.3609385,30.600563 11.253383,26.977746 15.84912,25.640169 19.625798,27.612992 Z"
       sodipodi:nodetypes="ccsc" /><path
       style="fill:#bfbfbf;stroke:none;stroke-width:0.499999"
       id="path353"
       d="M 0.06735096,41.833005 C 12.656389,38.600105 15.47802,35.703918 20.109389,30.118118 c 2.421177,-2.39258 5.235224,-6.31168 7.08645,-9.1406 1.534553,1.69654 3.70607,3.214 6.36577,2.69193 2.859402,5.98105 7.372446,10.726467 12.657676,14.578337 2.91264,2.13254 5.679064,1.758973 7.970511,-0.133887 1.953871,-1.91835 2.767911,-6.60987 4.568321,-9.8878 4.78244,6.92691 3.960953,13.702337 11.173013,15.945387 0.001,-0.79732 -0.0846,-4.034233 0,-4.908303 -5.12515,0.19858 -5.765763,-9.124117 -11.942713,-15.294647 -0.42318,0.33629 -1.64877,1.92687 -3.106443,6.59314 -1.457672,4.66627 -3.955907,7.59162 -3.58858,7.21844 1.329678,-0.95002 3.673551,-1.75975 0.710972,-0.90807 -3.345208,-0.30396 -7.164155,-2.01532 -9.597328,-4.94438 -2.433173,-2.92905 -5.583478,-7.52312 -7.924971,-12.36552 -4.148822,1.35563 -3.974308,-0.64844 -6.762024,-3.20009 -2.946757,3.44806 -6.990163,10.08118 -10.418687,13.40522 -3.576471,4.12411 -5.915542,6.4153 -7.9730774,7.565 -2.7938657,1.62414 -5.8600067,1.64323 -9.26092764,2.61787 0.02839,0.54029 -0.0071,1.30457 0,1.88286 z"
       sodipodi:nodetypes="cccccccccczcczcccccc" /><path
       style="fill:#003399;fill-opacity:1;stroke:#003399;stroke-width:1;stroke-linecap:round;stroke-linejoin:miter;stroke-miterlimit:3.7;stroke-dasharray:1, 3;stroke-dashoffset:0;stroke-opacity:1"
       d="m 35.216283,17.005795 -1.233935,2.40944"
       id="path1235"
       sodipodi:nodetypes="cc" /><path
       style="fill:#003399;fill-opacity:1;stroke:#003399;stroke-width:1;stroke-linecap:round;stroke-linejoin:miter;stroke-miterlimit:3.7;stroke-dasharray:1, 3;stroke-dashoffset:0;stroke-opacity:1"
       d="m 39.019893,15.735845 -2.590541,5.10782"
       id="path1235-6"
       sodipodi:nodetypes="cc" /><path
       style="fill:#003399;fill-opacity:1;stroke:#003399;stroke-width:1;stroke-linecap:round;stroke-linejoin:miter;stroke-miterlimit:3.7;stroke-dasharray:1, 3;stroke-dashoffset:0;stroke-opacity:1"
       d="m 42.353396,15.913125 -4.434185,8.72867"
       id="path1235-6-7"
       sodipodi:nodetypes="cc" /><path
       style="fill:#003399;fill-opacity:1;stroke:#003399;stroke-width:1;stroke-linecap:round;stroke-linejoin:miter;stroke-miterlimit:3.7;stroke-dasharray:1, 3;stroke-dashoffset:0;stroke-opacity:1"
       d="M 45.787792,15.84561 38.950369,28.783369"
       id="path1235-6-7-5"
       sodipodi:nodetypes="cc" /><path
       style="fill:#003399;stroke:none;stroke-width:0.476623"
       id="path355"
       d="m 52.633825,35.705866 c -5.051545,0.631852 -8.164071,0.928312 -11.292633,8.855158 -0.433592,1.098591 -18.351785,-3.332685 -24.794644,-5.590329 -6.442859,-2.257644 -3.688429,-4.992179 -3.58604,-4.507756 0.166302,-0.155905 0.216619,-0.212862 0.483651,-0.466386 -0.841022,-0.379824 -2.068253,0.246829 -2.342668,2.215426 -0.274415,1.968607 4.766839,5.890866 26.379747,10.365059 21.612905,4.474192 20.720114,7.667684 22.101218,10.017246 2.322186,-0.09452 7.869409,0.147074 10.072217,0.253938 -7.776819,-7.56761 -7.138552,-9.119545 -25.453388,-11.581013 2.487049,-7.345464 5.819896,-6.014723 7.764955,-8.469151 0.411089,-0.611673 0.545376,-0.660235 0.667585,-1.092192 z"
       sodipodi:nodetypes="cszcczzccccc" /><path
       id="path960-7"
       style="display:inline;mix-blend-mode:lighten;fill:#003399;fill-opacity:1;stroke-width:0.0803395"
       d="m 38.382075,6.7607996 c 0.489731,-3.58652 4.108211,-4.87057 6.112179,-2.55964 2.676873,-2.15529 5.281237,-1.57412 5.677767,2.49206 4.86554,0.86136 3.82691,4.8498294 1.292405,6.0465284 -3.59175,-0.03919 -14.770845,0.05031 -16.218596,0.05031 -3.097151,-3.8605084 -0.04098,-5.3011884 4.345472,-5.1174384 -0.228211,-0.66568 -4.235383,-1.25982 -5.938629,0.47781 -1.703246,1.73763 -0.449715,4.0609744 0.998037,5.6051774 6.514881,0 11.536718,-0.06021 17.175654,-0.05074 5.474007,-3.120794 1.813087,-7.7448474 -0.675913,-7.8926774 -0.729423,-3.78661 -3.059778,-4.82408998 -6.518139,-2.83994 -5.553391,-3.43941998 -7.724511,3.2302 -6.250237,3.78854 z"
       sodipodi:nodetypes="cccccczccccc" /></g></svg>
