<?xml version="1.0" encoding="UTF-8" standalone="no"?>
<!-- Created with Inkscape (http://www.inkscape.org/) -->

<svg
   width="72mm"
   height="59mm"
   viewBox="0 0 72 59"
   version="1.1"
   id="svg5"
   xml:space="preserve"
   inkscape:version="1.2.1 (9c6d41e410, 2022-07-14, custom)"
   sodipodi:docname="hmpy.svg"
   xmlns:inkscape="http://www.inkscape.org/namespaces/inkscape"
   xmlns:sodipodi="http://sodipodi.sourceforge.net/DTD/sodipodi-0.dtd"
   xmlns="http://www.w3.org/2000/svg"
   xmlns:svg="http://www.w3.org/2000/svg"><sodipodi:namedview
     id="namedview7"
     pagecolor="#ffffff"
     bordercolor="#666666"
     borderopacity="1.0"
     inkscape:showpageshadow="2"
     inkscape:pageopacity="0.0"
     inkscape:pagecheckerboard="0"
     inkscape:deskcolor="#d1d1d1"
     inkscape:document-units="mm"
     showgrid="false"
     inkscape:zoom="1.4142136"
     inkscape:cx="205.76807"
     inkscape:cy="174.65537"
     inkscape:window-width="1714"
     inkscape:window-height="1375"
     inkscape:window-x="0"
     inkscape:window-y="0"
     inkscape:window-maximized="0"
     inkscape:current-layer="layer1"><inkscape:grid
       type="xygrid"
       id="grid657"
       originx="0"
       originy="0" /></sodipodi:namedview><defs
     id="defs2" /><g
     inkscape:label="Layer 1"
     inkscape:groupmode="layer"
     id="layer1"><path
       id="path1379"
       style="fill:#ffcc00;stroke:none;stroke-width:1.97704;stroke-linecap:round;stroke-miterlimit:3.7"
       d="m 23.515459,23.424605 c -5.253634,9.95323 -9.154729,10.99367 -16.0339525,15.76735 -1.6495606,-0.66121 -3.9800536,-5.45519 -0.7707116,-11.27944 3.2093394,-5.82426 10.7330471,-7.83356 16.8046641,-4.48791 z"
       sodipodi:nodetypes="ccsc" /><path
       style="fill:#bfbfbf;stroke:none;stroke-width:0.499999"
       id="path353"
       d="M 0.06735096,41.833005 C 12.656389,38.600105 15.47802,34.645585 20.109389,29.059785 c 2.421177,-2.39258 5.235224,-6.31168 7.08645,-9.1406 1.534553,1.69654 3.70607,3.214 6.36577,2.69193 2.859402,5.98105 7.372446,11.7848 12.657676,15.63667 2.91264,2.13254 5.679064,0.70064 7.970511,-1.19222 1.953871,-1.91835 2.767911,-6.60987 4.568321,-9.8878 4.78244,6.92691 7.66512,16.34817 14.87718,18.59122 0.001,-0.79732 -0.0846,-2.9759 0,-3.84997 -5.12515,0.19858 -9.46993,-11.76995 -15.64688,-17.94048 -0.42318,0.33629 -1.64877,1.92687 -3.106443,6.59314 -1.457672,4.66627 -3.955907,7.59162 -3.58858,7.21844 1.329678,-0.95002 3.673551,-1.75975 0.710972,-0.90807 -3.345208,-0.30396 -7.164155,-2.01532 -9.597328,-4.94438 -2.433173,-2.92905 -5.583478,-7.52312 -7.924971,-12.36552 -4.148822,1.35563 -3.974308,-0.64844 -6.762024,-3.20009 -2.946757,3.44806 -6.990163,10.08118 -10.418687,13.40522 -3.576471,4.12411 -5.915542,6.4153 -7.9730774,7.565 -2.7938657,1.62414 -5.8600067,1.64323 -9.26092764,2.61787 0.02839,0.54029 -0.0071,1.30457 0,1.88286 z"
       sodipodi:nodetypes="cccccccccczcczcccccc" /><path
       style="fill:none;stroke:#6699ff;stroke-width:0.817712;stroke-linecap:butt;stroke-linejoin:miter;stroke-dasharray:none;stroke-opacity:1"
       d="m 32.461638,10.240215 c 1.012366,-1.3322805 3.052474,-1.3538605 4.174163,-1.1059205 -0.660477,-1.39358 1.118921,-5.31297 4.781354,-5.82623 3.66241,-0.513263 5.1217,1.65208 5.1217,1.65208 0,0 1.65855,-2.279468 3.81163,-1.1216 2.15308,1.15786 2.77927,2.75233 1.74098,4.38496 4.681182,2.3472905 1.87307,5.9138705 -0.69895,6.4685805 -5.42808,-0.10752 -12.592373,-0.0207 -16.726485,0.16025 -2.244181,-1.19959 -3.432615,-2.80536 -2.204392,-4.61209 z"
       id="path679"
       sodipodi:nodetypes="cczczccccc" /><path
       style="fill:#6699ff;stroke:#6699ff;stroke-width:1;stroke-linecap:round;stroke-linejoin:miter;stroke-miterlimit:3.7;stroke-dasharray:1, 3;stroke-dashoffset:0;stroke-opacity:1"
       d="m 35.216283,17.005795 -1.233935,2.40944"
       id="path1235"
       sodipodi:nodetypes="cc" /><path
       style="fill:#6699ff;stroke:#6699ff;stroke-width:1;stroke-linecap:round;stroke-linejoin:miter;stroke-miterlimit:3.7;stroke-dasharray:1, 3;stroke-dashoffset:0;stroke-opacity:1"
       d="m 39.019893,15.735845 -2.590541,5.10782"
       id="path1235-6"
       sodipodi:nodetypes="cc" /><path
       style="fill:#6699ff;stroke:#6699ff;stroke-width:1;stroke-linecap:round;stroke-linejoin:miter;stroke-miterlimit:3.7;stroke-dasharray:1, 3;stroke-dashoffset:0;stroke-opacity:1"
       d="m 42.353396,15.913125 -4.434185,8.72867"
       id="path1235-6-7"
       sodipodi:nodetypes="cc" /><path
       style="fill:#6699ff;stroke:#6699ff;stroke-width:1;stroke-linecap:round;stroke-linejoin:miter;stroke-miterlimit:3.7;stroke-dasharray:1, 3;stroke-dashoffset:0;stroke-opacity:1"
       d="M 45.787792,15.84561 38.950369,28.783369"
       id="path1235-6-7-5"
       sodipodi:nodetypes="cc" /><path
       style="fill:#003399;stroke:none;stroke-width:0.480088"
       id="path355"
       d="m 53.376815,34.285745 c -5.498288,3.43067 -8.942938,2.39145 -12.068137,10.44261 -0.433126,1.11582 -18.33206,-3.38495 -24.767994,-5.678 -6.435934,-2.29305 -3.684464,-5.07047 -3.582185,-4.57845 0.166123,-0.15835 0.216386,-0.2162 0.483131,-0.4737 -0.840118,-0.38578 -2.06603,0.2507 -2.34015,2.25017 -0.27412,1.99948 4.761715,5.98325 26.351392,10.52761 21.589675,4.54436 24.215725,11.17523 25.595345,13.56164 2.31969,-0.096 7.86095,0.14938 10.06139,0.25792 -7.76846,-7.68629 -10.64876,-12.64986 -28.943911,-15.14993 2.484376,-7.46066 5.813641,-6.10905 7.756609,-8.60197 0.83287,-1.29645 1.279602,-2.18219 1.454504,-2.5579 z"
       sodipodi:nodetypes="cszcczzcccccc" /></g></svg>
